<svg xmlns="http://www.w3.org/2000/svg" version="1.1" xmlns:xlink="http://www.w3.org/1999/xlink" xmlns:svgjs="http://svgjs.dev/svgjs" width="1000" height="1000"><g clip-path="url(#SvgjsClipPath1106)"><rect width="1000" height="1000" fill="#001920"></rect><g transform="matrix(2.734375,0,0,2.734375,150,150)"><svg xmlns="http://www.w3.org/2000/svg" version="1.1" xmlns:xlink="http://www.w3.org/1999/xlink" xmlns:svgjs="http://svgjs.dev/svgjs" width="256" height="256"><svg xmlns="http://www.w3.org/2000/svg" width="256" height="256" viewBox="0 0 100 100"><rect width="100" height="100" rx="20" fill="#001920"></rect><path fill="#fff" d="M13.91 77L13.91 77Q12.20 77 11.08 75.92Q9.95 74.84 9.95 73.04L9.95 73.04L9.95 22.46Q10.40 22.28 11.35 22.05Q12.29 21.83 13.37 21.83L13.37 21.83Q17.33 21.83 17.33 25.16L17.33 25.16L17.33 70.70L43.16 70.70Q44.15 71.69 44.15 73.67L44.15 73.67Q44.15 75.20 43.34 76.10Q42.53 77 41.18 77L41.18 77L13.91 77ZM86.63 56.57L58.91 60.44Q61.34 72.23 74.39 72.23L74.39 72.23Q78.17 72.23 81.23 70.97Q84.29 69.71 86.09 68.27L86.09 68.27Q88.25 69.53 88.25 71.69L88.25 71.69Q88.25 72.95 87.13 74.12Q86 75.29 84.06 76.19Q82.13 77.09 79.56 77.63Q77 78.17 74.03 78.17L74.03 78.17Q63.59 78.17 57.52 72.50Q51.44 66.83 51.44 55.94L51.44 55.94Q51.44 50.81 52.93 46.80Q54.41 42.80 57.07 40.01Q59.72 37.22 63.41 35.73Q67.10 34.25 71.42 34.25L71.42 34.25Q75.47 34.25 78.89 35.60Q82.31 36.95 84.78 39.43Q87.26 41.90 88.66 45.28Q90.05 48.65 90.05 52.70L90.05 52.70Q90.05 54.68 89.15 55.53Q88.25 56.39 86.63 56.57L86.63 56.57ZM71.33 40.10L71.33 40.10Q65.84 40.10 62.24 43.93Q58.64 47.75 58.46 54.86L58.46 54.86L83.21 51.44Q82.76 46.49 79.75 43.30Q76.73 40.10 71.33 40.10Z"></path></svg></svg></g></g><defs><clipPath id="SvgjsClipPath1106"><rect width="1000" height="1000" x="0" y="0" rx="350" ry="350"></rect></clipPath></defs></svg>